MeshGeometry
1
1
48
84
7
1
664.6439 781.1964 774.7507
765.0139 724.3364 774.7507
664.6439 724.3364 774.7507
765.0139 781.1964 774.7507
664.6439 781.1964 875.1207
765.0139 724.3364 875.1207
765.0139 781.1964 875.1207
664.6439 724.3364 875.1207
765.0139 724.3364 875.1207
765.0139 724.3364 774.7507
765.0139 781.1964 875.1207
765.0139 781.1964 774.7507
765.0139 792.1358 796.4125
765.0139 792.1358 853.4589
765.0139 809.3465 821.1708
765.0139 809.3465 828.7006
664.6439 781.1964 875.1207
664.6439 724.3364 774.7507
664.6439 724.3364 875.1207
664.6439 781.1964 774.7507
664.6439 792.1358 853.4589
664.6439 792.1358 796.4125
664.6439 809.3465 828.7006
664.6439 809.3465 821.1708
664.6439 724.3364 875.1207
765.0139 724.3364 774.7507
765.0139 724.3364 875.1207
664.6439 724.3364 774.7507
664.6439 792.1358 796.4125
765.0139 781.1964 774.7507
664.6439 781.1964 774.7507
765.0139 792.1358 796.4125
765.0139 792.1358 853.4589
664.6439 781.1964 875.1207
765.0139 781.1964 875.1207
664.6439 792.1358 853.4589
664.6439 809.3465 821.1708
765.0139 792.1358 796.4125
664.6439 792.1358 796.4125
765.0139 809.3465 821.1708
765.0139 809.3465 828.7006
664.6439 792.1358 853.4589
765.0139 792.1358 853.4589
664.6439 809.3465 828.7006
664.6439 809.3465 828.7006
765.0139 809.3465 821.1708
664.6439 809.3465 821.1708
765.0139 809.3465 828.7006
2
0 0 -1
0 0 -1
0 0 -1
0 0 -1
0 0 1
0 0 1
0 0 1
0 0 1
1 0 0
1 0 0
1 0 0
1 0 0
1 0 0
1 0 0
1 0 0
1 0 0
-1 0 0
-1 0 0
-1 0 0
-1 0 0
-1 0 0
-1 0 0
-1 0 0
-1 0 0
0 -1 0
0 -1 0
0 -1 0
0 -1 0
0 0.89263 -0.45079
0 0.89263 -0.45079
0 0.89263 -0.45079
0 0.89263 -0.45079
0 0.89263 0.45079
0 0.89263 0.45079
0 0.89263 0.45079
0 0.89263 0.45079
0 0.8210974 -0.5707881
0 0.8210974 -0.5707881
0 0.8210974 -0.5707881
0 0.8210974 -0.5707881
0 0.8210974 0.5707881
0 0.8210974 0.5707881
0 0.8210974 0.5707881
0 0.8210974 0.5707881
0 1 0
0 1 0
0 1 0
0 1 0
4
-713.8279 -724.232 -824.9362 -1
-713.8279 -724.232 -824.9362 -1
-713.8279 -724.232 -824.9362 -1
-713.8279 -724.232 -824.9362 -1
-715.8279 -724.232 -824.9362 -1
-715.8279 -724.232 -824.9362 -1
-715.8279 -724.232 -824.9362 -1
-715.8279 -724.232 -824.9362 -1
-714.8279 -724.232 -823.9362 -1
-714.8279 -724.232 -823.9362 -1
-714.8279 -724.232 -823.9362 -1
-714.8279 -724.232 -823.9362 -1
-714.8279 -724.232 -823.9362 -1
-714.8279 -724.232 -823.9362 -1
-714.8279 -724.232 -823.9362 -1
-714.8279 -724.232 -823.9362 -1
-714.8279 -724.232 -825.9362 -1
-714.8279 -724.232 -825.9362 -1
-714.8279 -724.232 -825.9362 -1
-714.8279 -724.232 -825.9362 -1
-714.8279 -724.232 -825.9362 -1
-714.8279 -724.232 -825.9362 -1
-714.8279 -724.232 -825.9362 -1
-714.8279 -724.232 -825.9362 -1
-715.8279 -724.232 -824.9362 -1
-715.8279 -724.232 -824.9362 -1
-715.8279 -724.232 -824.9362 -1
-715.8279 -724.232 -824.9362 -1
-715.8279 -724.232 -824.9362 -1
-715.8279 -724.232 -824.9362 -1
-715.8279 -724.232 -824.9362 -1
-715.8279 -724.232 -824.9362 -1
-715.8279 -724.232 -824.9362 -1
-715.8279 -724.232 -824.9362 -1
-715.8279 -724.232 -824.9362 -1
-715.8279 -724.232 -824.9362 -1
-715.8279 -724.232 -824.9362 -1
-715.8279 -724.232 -824.9362 -1
-715.8279 -724.232 -824.9362 -1
-715.8279 -724.232 -824.9362 -1
-715.8279 -724.232 -824.9362 -1
-715.8279 -724.232 -824.9362 -1
-715.8279 -724.232 -824.9362 -1
-715.8279 -724.232 -824.9362 -1
-715.8279 -724.232 -824.9362 -1
-715.8279 -724.232 -824.9362 -1
-715.8279 -724.232 -824.9362 -1
-715.8279 -724.232 -824.9362 -1
16
0.01359 0.3546
0.61673 0.01292
0.01359 0.01292
0.61673 0.3546
0.6179 0.35501
0.01476 0.01333
0.01476 0.35501
0.6179 0.01333
0.61823 0.01269
0.01509 0.01269
0.61823 0.35437
0.01509 0.35437
0.14526 0.42011
0.48806 0.42011
0.29403 0.52353
0.33928 0.52353
0.01495 0.35449
0.61809 0.01281
0.01495 0.01281
0.61809 0.35449
0.14512 0.42022
0.48792 0.42022
0.29389 0.52364
0.33914 0.52364
0.32983 0.1164
0.31098 0.09755
0.31098 0.1164
0.32983 0.09755
0.9877 0.88132
0.48924 0.9889
0.9877 0.9889
0.48924 0.88132
0.48924 0.59802
0.9877 0.49044
0.48924 0.49044
0.9877 0.59802
0.9877 0.75837
0.48924 0.88132
0.9877 0.88132
0.48924 0.75837
0.48924 0.72097
0.9877 0.59802
0.48924 0.59802
0.9877 0.72097
0.9877 0.72097
0.48924 0.75837
0.9877 0.75837
0.48924 0.72097
256
0 1 2
3 1 0
4 5 6
7 5 4
8 9 10
10 9 11
12 10 11
13 10 12
14 13 12
15 13 14
16 17 18
19 17 16
20 19 16
21 19 20
22 21 20
23 21 22
24 25 26
27 25 24
28 29 30
31 29 28
32 33 34
35 33 32
36 37 38
39 37 36
40 41 42
43 41 40
44 45 46
47 45 44
16384
0 84
32768
mesh01_0
