MeshGeometry
1
1
193
1056
7
1
350.8632 323.3613 243.103
347.9637 323.3613 242.8174
347.9637 326.1425 244.304
350.5732 326.1425 244.561
353.6513 323.3613 243.9488
345.3543 326.1425 244.561
345.0643 323.3613 243.103
353.0824 326.1425 245.3222
356.2208 323.3613 245.3222
342.8451 326.1425 245.3222
342.2762 323.3613 243.9488
355.3949 326.1425 246.5582
358.4729 323.3613 247.1705
340.5327 326.1425 246.5582
339.7068 323.3613 245.3222
357.4218 326.1425 248.2217
360.3212 323.3613 249.4227
338.5058 326.1425 248.2216
337.4546 323.3613 247.1705
359.0852 326.1425 250.2486
361.6947 323.3613 251.9921
336.8423 326.1425 250.2485
335.6063 323.3613 249.4226
360.3213 326.1425 252.561
362.5404 323.3613 254.7802
335.6063 326.1425 252.561
334.2328 323.3613 251.9921
361.0824 326.1425 255.0702
362.826 323.3613 257.6797
334.8451 326.1425 255.0702
333.3871 323.3613 254.7802
361.3394 326.1425 257.6797
362.5404 323.3613 260.5792
334.5881 326.1425 257.6797
333.1015 323.3613 257.6797
361.0824 326.1425 260.2892
361.6947 323.3613 263.3672
334.8451 326.1425 260.2891
333.3871 323.3613 260.5791
360.3212 326.1425 262.7983
360.3212 323.3613 265.9367
335.6063 326.1425 262.7983
334.2328 323.3613 263.3672
359.0852 326.1425 265.1108
358.4729 323.3613 268.1889
336.8423 326.1425 265.1108
335.6063 323.3613 265.9367
357.4218 326.1425 267.1377
356.2208 323.3613 270.0372
338.5057 326.1425 267.1377
337.4546 323.3613 268.1888
355.3949 326.1425 268.8011
353.6513 323.3613 271.4106
340.5326 326.1425 268.8011
339.7067 323.3613 270.0372
353.0824 326.1425 270.0372
350.8632 323.3613 272.2563
342.8451 326.1425 270.0372
342.2762 323.3613 271.4106
350.5732 326.1425 270.7983
347.9637 323.3613 272.5419
345.3543 326.1425 270.7983
345.0643 323.3613 272.2563
347.9637 326.1425 271.0553
341.6441 328.5803 267.1377
343.6107 328.5803 268.1888
345.7446 328.5803 268.8362
347.9637 328.5803 269.0547
350.1829 328.5803 268.8362
352.3168 328.5803 268.1889
339.9203 328.5803 265.7231
354.2834 328.5803 267.1377
338.5057 328.5803 263.9993
356.0071 328.5803 265.7231
337.4546 328.5803 262.0327
357.4218 328.5803 263.9993
336.8073 328.5803 259.8988
358.4729 328.5803 262.0327
336.5887 328.5803 257.6797
359.1202 328.5803 259.8988
336.8073 328.5803 255.4605
359.3388 328.5803 257.6797
337.4546 328.5803 253.3266
359.1202 328.5803 255.4605
338.5057 328.5803 251.36
358.4729 328.5803 253.3266
339.9204 328.5803 249.6363
357.4218 328.5803 251.36
341.6441 328.5803 248.2216
356.0071 328.5803 249.6363
343.6107 328.5803 247.1705
354.2834 328.5803 248.2217
345.7446 328.5803 246.5232
352.3168 328.5803 247.1705
347.9637 328.5803 246.3046
350.1829 328.5803 246.5232
342.9984 330.5808 250.2486
344.5436 330.5808 249.4227
346.2202 330.5808 248.9141
347.9637 330.5808 248.7424
349.7073 330.5808 248.9141
351.3839 330.5808 249.4227
341.6441 330.5808 251.36
352.9291 330.5808 250.2486
340.5327 330.5808 252.7144
354.2834 330.5808 251.36
339.7068 330.5808 254.2595
355.3949 330.5808 252.7144
339.1982 330.5808 255.9361
356.2208 330.5808 254.2595
339.0264 330.5808 257.6797
356.7293 330.5808 255.9361
339.1982 330.5808 259.4232
356.9011 330.5808 257.6797
339.7067 330.5808 261.0998
356.7293 330.5808 259.4233
340.5326 330.5808 262.645
356.2208 330.5808 261.0999
341.6441 330.5808 263.9993
355.3949 330.5808 262.645
342.9984 330.5808 265.1108
354.2834 330.5808 263.9993
344.5436 330.5808 265.9367
352.929 330.5808 265.1108
346.2202 330.5808 266.4453
351.3839 330.5808 265.9367
347.9637 330.5808 266.617
349.7073 330.5808 266.4453
345.6079 332.0674 263.3672
346.7628 332.0674 263.7175
347.9637 332.0674 263.8358
349.1648 332.0674 263.7175
350.3196 332.0674 263.3672
351.3839 332.0674 262.7983
344.5436 332.0674 262.7983
352.3168 332.0674 262.0327
343.6107 332.0674 262.0327
353.0824 332.0674 261.0999
342.8451 332.0674 261.0998
353.6513 332.0674 260.0355
342.2762 332.0674 260.0355
354.0016 332.0674 258.8807
341.9259 332.0674 258.8807
354.1199 332.0674 257.6797
341.8076 332.0674 257.6797
354.0016 332.0674 256.4787
341.9259 332.0674 256.4787
353.6513 332.0674 255.3238
342.2762 332.0674 255.3238
353.0824 332.0674 254.2595
342.8451 332.0674 254.2595
352.3168 332.0674 253.3266
343.6107 332.0674 253.3266
351.3839 332.0674 252.561
344.5436 332.0674 252.561
350.3196 332.0674 251.9921
345.6079 332.0674 251.9921
349.1648 332.0674 251.6418
346.7628 332.0674 251.6418
347.9637 332.0674 251.5235
345.7446 332.9828 255.4605
346.2202 332.9828 255.0702
347.9637 333.292 257.6797
345.3543 332.9828 255.9361
346.7628 332.9828 254.7802
345.0643 332.9828 256.4787
347.3515 332.9828 254.6016
344.8857 332.9828 257.0674
347.9637 332.9828 254.5413
344.8254 332.9828 257.6797
348.576 332.9828 254.6016
344.8857 332.9828 258.2919
349.1648 332.9828 254.7802
345.0643 332.9828 258.8807
349.7073 332.9828 255.0702
345.3543 332.9828 259.4232
350.1829 332.9828 255.4605
345.7446 332.9828 259.8988
350.5732 332.9828 255.9361
346.2202 332.9828 260.2891
350.8632 332.9828 256.4787
346.7628 332.9828 260.5792
351.0418 332.9828 257.0674
347.3515 332.9828 260.7578
351.1021 332.9828 257.6797
347.9637 332.9828 260.8181
351.0418 332.9828 258.2919
348.576 332.9828 260.7578
350.8632 332.9828 258.8807
349.1648 332.9828 260.5792
350.5732 332.9828 259.4232
349.7073 332.9828 260.2891
350.1829 332.9828 259.8988
2
0.172054 0.4713959 -0.8649759
0 0.4713963 -0.8819215
0 0.5527609 -0.8333399
0.1625761 0.5527613 -0.8173273
0.3374969 0.4713969 -0.8147888
-0.162575 0.5527609 -0.8173278
-0.1720529 0.4713968 -0.8649756
0.3189049 0.5527609 -0.7699059
0.4899689 0.4713969 -0.7332909
-0.3189041 0.5527611 -0.7699061
-0.3374949 0.4713969 -0.8147897
0.4629789 0.5527609 -0.6928968
0.6236126 0.4713967 -0.6236126
-0.4629781 0.5527611 -0.6928971
-0.4899678 0.4713968 -0.7332917
0.5892602 0.5527612 -0.5892602
0.7332911 0.4713961 -0.4899691
-0.5892592 0.5527612 -0.5892612
-0.6236109 0.471397 -0.623614
0.6928962 0.5527612 -0.4629792
0.8147888 0.4713969 -0.3374969
-0.6928959 0.552761 -0.4629799
-0.7332897 0.4713968 -0.4899708
0.7699054 0.5527614 -0.3189052
0.8649755 0.4713967 -0.1720539
-0.769905 0.552761 -0.318907
-0.8147885 0.4713967 -0.3374978
0.8173273 0.5527613 -0.1625761
0.8819215 0.4713963 0
-0.8173271 0.5527611 -0.162578
-0.8649749 0.471397 -0.172056
0.8333399 0.5527609 0
0.8649755 0.4713963 0.1720551
-0.8333399 0.5527609 0
-0.8819215 0.4713963 0
0.8173273 0.5527612 0.162577
0.8147892 0.4713961 0.3374971
-0.8173275 0.5527614 0.1625751
-0.8649756 0.4713968 0.1720529
0.7699051 0.5527611 0.3189061
0.7332911 0.4713961 0.4899691
-0.7699061 0.5527611 0.3189041
-0.8147898 0.4713959 0.3374959
0.6928962 0.5527612 0.4629792
0.6236119 0.471397 0.6236129
-0.6928971 0.5527611 0.4629781
-0.7332915 0.4713964 0.4899684
0.5892602 0.5527612 0.5892602
0.4899689 0.4713969 0.7332909
-0.5892612 0.5527612 0.5892592
-0.6236132 0.4713962 0.6236122
0.4629781 0.5527611 0.6928971
0.337496 0.4713971 0.8147891
-0.4629792 0.5527612 0.6928962
-0.4899702 0.4713962 0.7332904
0.3189049 0.5527609 0.7699059
0.1720539 0.4713967 0.8649755
-0.3189061 0.5527611 0.7699051
-0.3374971 0.4713961 0.8147892
0.1625761 0.5527613 0.8173273
0 0.471397 0.8819211
-0.162577 0.5527612 0.8173273
-0.172055 0.471397 0.8649751
0 0.5527609 0.8333399
-0.3945339 0.7040589 0.5904609
-0.27176 0.7040589 0.656085
-0.138542 0.7040592 0.6964962
0 0.7040592 0.7101412
0.138541 0.7040592 0.6964962
0.2717591 0.7040592 0.6560852
-0.5021462 0.7040592 0.5021452
0.3945331 0.7040592 0.5904611
-0.5904611 0.7040592 0.3945331
0.5021459 0.7040589 0.5021459
-0.6560854 0.7040594 0.2717581
0.5904609 0.7040589 0.3945339
-0.6964962 0.7040592 0.138541
0.656085 0.7040589 0.27176
-0.7101412 0.7040592 0
0.6964962 0.7040592 0.138542
-0.6964961 0.7040591 -0.138543
0.7101412 0.7040592 0
-0.656085 0.7040589 -0.27176
0.6964962 0.7040592 -0.138542
-0.5904603 0.7040594 -0.3945342
0.6560852 0.7040592 -0.2717591
-0.5021449 0.7040589 -0.502147
0.5904609 0.7040589 -0.3945339
-0.394532 0.704059 -0.590462
0.5021459 0.7040589 -0.5021459
-0.2717579 0.7040589 -0.6560859
0.3945331 0.7040592 -0.5904611
-0.138541 0.7040592 -0.6964962
0.2717591 0.7040592 -0.6560852
0 0.7040592 -0.7101412
0.138542 0.7040592 -0.6964962
-0.3109938 0.8286445 -0.4654367
-0.2142159 0.8286447 -0.5171648
-0.109206 0.8286449 -0.5490189
0 0.8286448 -0.5597749
0.109207 0.8286448 -0.5490188
0.2142169 0.8286445 -0.5171647
-0.3958199 0.8286449 -0.3958209
0.3109939 0.8286448 -0.4654359
-0.465435 0.8286449 -0.310995
0.3958208 0.8286445 -0.3958208
-0.5171639 0.8286449 -0.214218
0.4654359 0.8286448 -0.3109939
-0.5490187 0.8286447 -0.109208
0.5171647 0.8286445 -0.2142169
-0.5597749 0.8286448 0
0.5490188 0.8286448 -0.109207
-0.5490189 0.8286449 0.109206
0.5597749 0.8286448 0
-0.5171648 0.8286447 0.2142159
0.5490188 0.8286448 0.109207
-0.4654359 0.8286448 0.3109939
0.5171647 0.8286445 0.2142169
-0.3958209 0.8286449 0.3958199
0.4654357 0.8286445 0.3109948
-0.3109948 0.8286445 0.4654357
0.3958208 0.8286445 0.3958208
-0.214217 0.8286449 0.5171639
0.3109939 0.8286448 0.4654359
-0.109207 0.8286448 0.5490188
0.2142159 0.8286447 0.5171648
0 0.8286448 0.5597749
0.109206 0.8286449 0.5490189
-0.148438 0.9217069 0.358361
-0.075673 0.921707 0.380434
0 0.921707 0.387887
0.075673 0.921707 0.380434
0.148438 0.9217069 0.358361
0.215498 0.921707 0.322516
-0.215499 0.921707 0.322516
0.274277 0.921707 0.274278
-0.274278 0.921707 0.274277
0.322516 0.921707 0.215499
-0.322516 0.921707 0.215498
0.358361 0.9217069 0.148438
-0.358361 0.921707 0.148437
0.380434 0.921707 0.075673
-0.380434 0.921707 0.075672
0.387887 0.921707 0
-0.387887 0.921707 0
0.380434 0.921707 -0.075673
-0.3804339 0.9217069 -0.07567399
0.358361 0.9217069 -0.148438
-0.3583601 0.9217072 -0.148438
0.322516 0.921707 -0.215498
-0.322516 0.921707 -0.215499
0.2742771 0.9217072 -0.2742771
-0.274277 0.921707 -0.274278
0.215498 0.921707 -0.322516
-0.215498 0.9217069 -0.322517
0.148438 0.9217069 -0.358361
-0.148437 0.921707 -0.358361
0.075673 0.921707 -0.380434
-0.075672 0.921707 -0.380434
0 0.921707 -0.387887
-0.1421059 0.9795976 -0.142107
-0.111652 0.9795976 -0.1670999
0 1 0
-0.1670989 0.9795976 -0.111653
-0.07690697 0.9795976 -0.1856709
-0.1856709 0.9795976 -0.07690797
-0.03920699 0.9795976 -0.1971069
-0.1971069 0.9795976 -0.03920699
0 0.9795976 -0.2009689
-0.2009689 0.9795976 0
0.03920699 0.9795976 -0.1971069
-0.1971069 0.9795976 0.03920699
0.07690697 0.9795976 -0.1856709
-0.1856709 0.9795976 0.07690697
0.111652 0.9795976 -0.1670999
-0.1670999 0.9795976 0.111652
0.142106 0.9795977 -0.142106
-0.142107 0.9795976 0.1421059
0.167099 0.9795977 -0.111652
-0.111653 0.9795976 0.1670989
0.1856709 0.9795976 -0.07690697
-0.07690797 0.9795976 0.1856709
0.1971069 0.9795976 -0.03920699
-0.03920699 0.9795976 0.1971069
0.2009689 0.9795976 0
0 0.9795976 0.2009689
0.1971069 0.9795976 0.03920699
0.03920699 0.9795976 0.1971069
0.1856709 0.9795976 0.07690797
0.07690697 0.9795976 0.1856709
0.167099 0.9795977 0.111652
0.111652 0.9795976 0.1670999
0.1421059 0.9795976 0.142107
4
-345.6437 -295.2818 -257.2322 -1
-345.6167 -295.0731 -257.3119 -1
-345.6167 -295.0719 -257.3123 -1
-345.6379 -295.2584 -257.2439 -1
-345.7147 -295.473 -257.17 -1
-345.6355 -294.8849 -257.3811 -1
-345.6402 -294.8656 -257.3931 -1
-345.6942 -295.4307 -257.1883 -1
-345.813 -295.6333 -257.136 -1
-345.6902 -294.7104 -257.437 -1
-345.7072 -294.6766 -257.4597 -1
-345.7734 -295.5789 -257.1545 -1
-345.9183 -295.7577 -257.1332 -1
-345.7688 -294.5592 -257.4711 -1
-345.8014 -294.5177 -257.5006 -1
-345.8609 -295.6983 -257.1465 -1
-346.0137 -295.8472 -257.1584 -1
-345.8565 -294.4369 -257.4792 -1
-345.9041 -294.3925 -257.5121 -1
-345.9427 -295.7881 -257.1633 -1
-346.0873 -295.9056 -257.2053 -1
-345.9392 -294.3444 -257.4623 -1
-345.9995 -294.2995 -257.4956 -1
-346.0081 -295.8497 -257.2006 -1
-346.1304 -295.9353 -257.2512 -1
-346.0058 -294.2804 -257.4246 -1
-346.0759 -294.2355 -257.4559 -1
-346.0506 -295.8863 -257.2589 -1
-346.1453 -295.9452 -257.3157 -1
-346.0488 -294.2428 -257.3721 -1
-346.126 -294.1969 -257.3994 -1
-346.0639 -295.8966 -257.3163 -1
-346.126 -295.9297 -257.3994 -1
-346.0639 -294.23 -257.3163 -1
-346.1453 -294.1814 -257.3157 -1
-346.0488 -295.8838 -257.3721 -1
-346.0759 -295.8911 -257.4559 -1
-346.0506 -294.2403 -257.2589 -1
-346.1304 -294.1913 -257.2512 -1
-346.0058 -295.8462 -257.4246 -1
-345.9995 -295.8271 -257.4956 -1
-346.0081 -294.2769 -257.2006 -1
-346.0874 -294.2209 -257.2053 -1
-345.9392 -295.7822 -257.4623 -1
-345.9041 -295.7341 -257.5121 -1
-345.9427 -294.3386 -257.1633 -1
-346.0137 -294.2794 -257.1584 -1
-345.8565 -295.6897 -257.4792 -1
-345.8014 -295.6089 -257.5006 -1
-345.8609 -294.4283 -257.1465 -1
-345.9183 -294.3689 -257.1331 -1
-345.7688 -295.5673 -257.4711 -1
-345.7072 -295.45 -257.4597 -1
-345.7734 -294.5477 -257.1545 -1
-345.8129 -294.4933 -257.136 -1
-345.6902 -295.4162 -257.437 -1
-345.6402 -295.261 -257.3931 -1
-345.6942 -294.6959 -257.1883 -1
-345.7147 -294.6536 -257.17 -1
-345.6355 -295.2417 -257.3811 -1
-345.6167 -295.0535 -257.3119 -1
-345.6379 -294.8682 -257.2439 -1
-345.6437 -294.8448 -257.2322 -1
-345.6167 -295.0547 -257.3123 -1
-345.7168 -294.6373 -257.2133 -1
-345.6657 -294.7623 -257.2357 -1
-345.63 -294.9046 -257.2708 -1
-345.6167 -295.0562 -257.3137 -1
-345.6284 -295.2079 -257.3571 -1
-345.663 -295.3517 -257.3921 -1
-345.7744 -294.5335 -257.2071 -1
-345.7136 -295.4789 -257.4145 -1
-345.8294 -294.4531 -257.2173 -1
-345.7711 -295.5849 -257.4208 -1
-345.8743 -294.3964 -257.2422 -1
-345.8266 -295.6673 -257.4113 -1
-345.9039 -294.3622 -257.2862 -1
-345.872 -295.7258 -257.3879 -1
-345.9127 -294.3533 -257.3239 -1
-345.9019 -295.761 -257.3545 -1
-345.9019 -294.3656 -257.3545 -1
-345.9127 -295.7733 -257.3239 -1
-345.872 -294.4008 -257.3879 -1
-345.9039 -295.7644 -257.2862 -1
-345.8266 -294.4593 -257.4113 -1
-345.8743 -295.7302 -257.2422 -1
-345.7711 -294.5417 -257.4208 -1
-345.8294 -295.6735 -257.2173 -1
-345.7136 -294.6476 -257.4144 -1
-345.7744 -295.593 -257.2071 -1
-345.663 -294.7748 -257.3921 -1
-345.7168 -295.4893 -257.2133 -1
-345.6284 -294.9187 -257.3571 -1
-345.6657 -295.3643 -257.2357 -1
-345.6167 -295.0704 -257.3137 -1
-345.63 -295.222 -257.2708 -1
-345.6708 -294.7456 -257.3731 -1
-345.6424 -294.8443 -257.3593 -1
-345.6232 -294.9536 -257.3387 -1
-345.6167 -295.0681 -257.3138 -1
-345.6241 -295.1834 -257.2905 -1
-345.644 -295.2925 -257.271 -1
-345.7039 -294.6612 -257.3776 -1
-345.6727 -295.3895 -257.2567 -1
-345.7362 -294.594 -257.3739 -1
-345.7057 -295.4722 -257.2519 -1
-345.7632 -294.5452 -257.363 -1
-345.738 -295.5381 -257.2568 -1
-345.7813 -294.5149 -257.3448 -1
-345.7648 -295.5858 -257.2712 -1
-345.7881 -294.5036 -257.3208 -1
-345.7823 -295.6144 -257.2942 -1
-345.7823 -294.5121 -257.2942 -1
-345.7881 -295.623 -257.3208 -1
-345.7648 -294.5408 -257.2712 -1
-345.7813 -295.6117 -257.3448 -1
-345.738 -294.5884 -257.2569 -1
-345.7632 -295.5814 -257.363 -1
-345.7057 -294.6544 -257.2519 -1
-345.7362 -295.5326 -257.3739 -1
-345.6727 -294.7371 -257.2567 -1
-345.7039 -295.4654 -257.3776 -1
-345.644 -294.8341 -257.271 -1
-345.6708 -295.381 -257.3731 -1
-345.6241 -294.9431 -257.2905 -1
-345.6424 -295.2823 -257.3592 -1
-345.6167 -295.0584 -257.3138 -1
-345.6232 -295.173 -257.3386 -1
-345.6288 -294.9083 -257.2961 -1
-345.6199 -294.9832 -257.3024 -1
-345.6167 -295.0618 -257.3102 -1
-345.6197 -295.1394 -257.3205 -1
-345.6281 -295.212 -257.3335 -1
-345.6408 -295.2787 -257.3429 -1
-345.6418 -294.8414 -257.2893 -1
-345.656 -295.3386 -257.3421 -1
-345.6567 -294.784 -257.2853 -1
-345.671 -295.3871 -257.3371 -1
-345.6714 -294.7375 -257.2853 -1
-345.6835 -295.4219 -257.3326 -1
-345.6839 -294.7032 -257.2903 -1
-345.692 -295.4435 -257.3246 -1
-345.6921 -294.6823 -257.2996 -1
-345.695 -295.4512 -257.3118 -1
-345.695 -294.6754 -257.3118 -1
-345.6921 -295.4443 -257.2996 -1
-345.692 -294.6831 -257.3246 -1
-345.6839 -295.4233 -257.2904 -1
-345.6835 -294.7047 -257.3326 -1
-345.6714 -295.389 -257.2853 -1
-345.671 -294.7395 -257.3371 -1
-345.6567 -295.3426 -257.2853 -1
-345.656 -294.788 -257.3421 -1
-345.6418 -295.2852 -257.2893 -1
-345.6408 -294.8479 -257.343 -1
-345.6288 -295.2183 -257.2961 -1
-345.6281 -294.9146 -257.3335 -1
-345.6199 -295.1433 -257.3023 -1
-345.6197 -294.9872 -257.3205 -1
-345.6167 -295.0648 -257.3102 -1
-345.6268 -294.9233 -257.3315 -1
-345.6229 -294.9527 -257.322 -1
-345.6167 -295.0633 -257.31 -1
-345.6307 -294.8979 -257.3307 -1
-345.6197 -294.9865 -257.3141 -1
-345.6341 -294.8781 -257.3196 -1
-345.6174 -295.0243 -257.3118 -1
-345.6363 -294.8663 -257.3128 -1
-345.6167 -295.0639 -257.3096 -1
-345.6371 -294.8623 -257.3103 -1
-345.6175 -295.1026 -257.3033 -1
-345.6363 -294.866 -257.308 -1
-345.6197 -295.1401 -257.2987 -1
-345.6342 -294.8772 -257.3052 -1
-345.623 -295.1749 -257.2969 -1
-345.6308 -294.8957 -257.3017 -1
-345.6269 -295.2057 -257.2983 -1
-345.6269 -294.9209 -257.2983 -1
-345.6308 -295.2309 -257.3016 -1
-345.623 -294.9517 -257.2969 -1
-345.6342 -295.2494 -257.3052 -1
-345.6197 -294.9865 -257.2987 -1
-345.6363 -295.2606 -257.308 -1
-345.6174 -295.024 -257.3032 -1
-345.6371 -295.2643 -257.3103 -1
-345.6167 -295.0627 -257.3098 -1
-345.6363 -295.2603 -257.3128 -1
-345.6174 -295.1022 -257.3119 -1
-345.6341 -295.2485 -257.3196 -1
-345.6197 -295.1402 -257.314 -1
-345.6307 -295.2287 -257.3307 -1
-345.6229 -295.1739 -257.3221 -1
-345.6268 -295.2033 -257.3315 -1
16
0.879329 0.015823
0.851665 0.012806
0.8514 0.037012
0.874354 0.039512
0.905879 0.024172
0.828402 0.039024
0.823943 0.015233
0.896385 0.046438
0.930296 0.037535
0.806238 0.045485
0.797225 0.023021
0.916646 0.057523
0.951643 0.055404
0.785764 0.056147
0.772541 0.035874
0.934358 0.072344
0.969095 0.077098
0.767767 0.0706
0.750842 0.053296
0.948836 0.090337
0.981972 0.101784
0.752937 0.088285
0.732962 0.074613
0.959519 0.110811
0.989775 0.128509
0.741841 0.108518
0.719583 0.099004
0.965991 0.132977
0.992201 0.156235
0.734902 0.130523
0.711216 0.125536
0.967997 0.155971
0.98917 0.183893
0.732388 0.153458
0.708184 0.153194
0.965484 0.178906
0.980802 0.210425
0.734394 0.176452
0.71061 0.18092
0.958544 0.200911
0.967423 0.234816
0.740866 0.198618
0.718413 0.207645
0.947448 0.221145
0.949543 0.256134
0.75155 0.219092
0.73129 0.232332
0.932618 0.238829
0.927845 0.273555
0.766027 0.237085
0.748742 0.254026
0.914622 0.253282
0.90316 0.286408
0.783739 0.251906
0.770089 0.271894
0.894147 0.263944
0.876442 0.294196
0.804 0.262991
0.794506 0.285257
0.871983 0.270405
0.84872 0.296624
0.826031 0.269917
0.821056 0.293606
0.848985 0.272417
0.797131 0.232316
0.81332 0.241166
0.830932 0.246698
0.849265 0.248671
0.867626 0.247077
0.885329 0.241912
0.782982 0.220485
0.901676 0.233392
0.771416 0.206125
0.91604 0.221845
0.762877 0.189781
0.927874 0.207718
0.757696 0.172067
0.936727 0.191559
0.756135 0.153717
0.94226 0.173993
0.758125 0.135436
0.94425 0.155712
0.763658 0.11787
0.942689 0.137362
0.772511 0.101711
0.937508 0.119649
0.784345 0.087585
0.928969 0.103304
0.798709 0.076037
0.917403 0.088944
0.815056 0.067517
0.903254 0.077113
0.83276 0.062352
0.887065 0.068264
0.85112 0.060758
0.869453 0.062731
0.811526 0.095813
0.823759 0.089418
0.837005 0.085538
0.850797 0.084323
0.864604 0.085782
0.877818 0.089942
0.800777 0.104483
0.889952 0.096566
0.791919 0.115089
0.900557 0.105422
0.785294 0.127219
0.909221 0.116161
0.78116 0.140408
0.915614 0.128362
0.779696 0.154166
0.919493 0.141538
0.780893 0.167891
0.920689 0.155264
0.784771 0.181067
0.919225 0.169021
0.791164 0.193268
0.915092 0.18221
0.799828 0.204008
0.908466 0.19434
0.810433 0.212863
0.899608 0.204946
0.822567 0.219488
0.888859 0.213616
0.835781 0.223648
0.876627 0.220011
0.849588 0.225107
0.86338 0.223892
0.831882 0.19786
0.840752 0.200635
0.850005 0.201582
0.859268 0.200694
0.868062 0.198032
0.876128 0.19377
0.823736 0.193419
0.883268 0.187969
0.816661 0.187506
0.889194 0.18081
0.810911 0.18037
0.893543 0.172645
0.806682 0.172297
0.896201 0.16392
0.804111 0.16358
0.897117 0.154888
0.803268 0.154542
0.896274 0.14585
0.804185 0.145509
0.893704 0.137133
0.806842 0.136783
0.889474 0.129059
0.811192 0.128618
0.883724 0.121924
0.817119 0.121459
0.876649 0.116011
0.824257 0.115659
0.868503 0.111569
0.832323 0.111398
0.859633 0.108795
0.841117 0.108735
0.85038 0.107848
0.833746 0.138252
0.837292 0.135382
0.850192 0.154715
0.830876 0.141686
0.841394 0.133225
0.828754 0.145654
0.845798 0.131884
0.827404 0.150038
0.850302 0.131454
0.826932 0.154611
0.854798 0.131912
0.827364 0.159186
0.859128 0.133239
0.828683 0.16358
0.863133 0.135386
0.830834 0.16762
0.866655 0.138278
0.83373 0.171152
0.869551 0.141809
0.837252 0.174043
0.871702 0.145849
0.841257 0.176191
0.873021 0.150243
0.845587 0.177517
0.873453 0.154819
0.850084 0.177975
0.872981 0.159392
0.854587 0.177546
0.87163 0.163776
0.858991 0.176205
0.869508 0.167744
0.863094 0.174047
0.866639 0.171179
256
0 1 2
0 2 3
4 0 3
1 5 2
1 6 5
4 3 7
8 4 7
6 9 5
6 10 9
8 7 11
12 8 11
10 13 9
10 14 13
12 11 15
16 12 15
14 17 13
14 18 17
16 15 19
20 16 19
18 21 17
18 22 21
20 19 23
24 20 23
22 25 21
22 26 25
24 23 27
28 24 27
26 29 25
26 30 29
28 27 31
32 28 31
30 33 29
30 34 33
32 31 35
36 32 35
34 37 33
34 38 37
36 35 39
40 36 39
38 41 37
38 42 41
40 39 43
44 40 43
42 45 41
42 46 45
44 43 47
48 44 47
46 49 45
46 50 49
48 47 51
52 48 51
50 53 49
50 54 53
52 51 55
56 52 55
54 57 53
54 58 57
56 55 59
60 56 59
58 61 57
58 62 61
62 60 63
60 59 63
62 63 61
49 53 64
53 57 65
53 65 64
57 61 66
57 66 65
61 63 67
61 67 66
63 59 68
63 68 67
59 55 69
59 69 68
49 64 70
45 49 70
55 71 69
55 51 71
45 70 72
41 45 72
51 73 71
51 47 73
41 72 74
37 41 74
47 75 73
47 43 75
37 74 76
33 37 76
43 77 75
43 39 77
33 76 78
29 33 78
39 79 77
39 35 79
29 78 80
25 29 80
35 81 79
35 31 81
25 80 82
21 25 82
31 83 81
31 27 83
21 82 84
17 21 84
27 85 83
27 23 85
17 84 86
13 17 86
23 87 85
23 19 87
13 86 88
9 13 88
19 89 87
19 15 89
9 88 90
5 9 90
15 91 89
15 11 91
5 90 92
2 5 92
11 93 91
11 7 93
2 92 94
3 2 94
7 3 95
7 95 93
3 94 95
90 88 96
92 90 97
90 96 97
94 92 98
92 97 98
95 94 99
94 98 99
93 95 100
95 99 100
91 93 101
93 100 101
88 102 96
88 86 102
91 101 103
89 91 103
86 104 102
86 84 104
89 103 105
87 89 105
84 106 104
84 82 106
87 105 107
85 87 107
82 108 106
82 80 108
85 107 109
83 85 109
80 110 108
80 78 110
83 109 111
81 83 111
78 112 110
78 76 112
81 111 113
79 81 113
76 114 112
76 74 114
79 113 115
77 79 115
74 116 114
74 72 116
77 115 117
75 77 117
72 118 116
72 70 118
75 117 119
73 75 119
70 120 118
70 64 120
73 119 121
71 73 121
64 122 120
64 65 122
71 121 123
69 71 123
65 124 122
65 66 124
69 123 125
68 69 125
66 126 124
66 67 126
67 68 127
68 125 127
67 127 126
120 122 128
122 124 129
122 129 128
124 126 130
124 130 129
126 127 131
126 131 130
127 125 132
127 132 131
125 123 133
125 133 132
120 128 134
118 120 134
123 135 133
123 121 135
118 134 136
116 118 136
121 137 135
121 119 137
116 136 138
114 116 138
119 139 137
119 117 139
114 138 140
112 114 140
117 141 139
117 115 141
112 140 142
110 112 142
115 143 141
115 113 143
110 142 144
108 110 144
113 145 143
113 111 145
108 144 146
106 108 146
111 147 145
111 109 147
106 146 148
104 106 148
109 149 147
109 107 149
104 148 150
102 104 150
107 151 149
107 105 151
102 150 152
96 102 152
105 153 151
105 103 153
96 152 154
97 96 154
103 155 153
103 101 155
97 154 156
98 97 156
101 157 155
101 100 157
98 156 158
99 98 158
100 99 159
100 159 157
99 158 159
154 152 160
156 154 161
154 160 161
162 161 160
152 163 160
162 160 163
152 150 163
156 161 164
158 156 164
162 164 161
150 165 163
162 163 165
150 148 165
158 164 166
159 158 166
162 166 164
148 167 165
162 165 167
148 146 167
159 166 168
162 168 166
162 167 169
146 169 167
162 170 168
157 159 168
157 168 170
146 144 169
155 157 170
144 171 169
162 169 171
144 142 171
155 170 172
162 172 170
153 155 172
142 173 171
162 171 173
142 140 173
153 172 174
162 174 172
151 153 174
140 175 173
162 173 175
140 138 175
151 174 176
162 176 174
162 175 177
138 177 175
162 178 176
149 151 176
149 176 178
138 136 177
147 149 178
136 179 177
162 177 179
136 134 179
147 178 180
162 180 178
145 147 180
134 181 179
162 179 181
134 128 181
145 180 182
162 182 180
143 145 182
128 183 181
162 181 183
128 129 183
143 182 184
162 184 182
162 183 185
129 185 183
162 186 184
141 143 184
141 184 186
129 130 185
139 141 186
130 187 185
162 185 187
130 131 187
139 186 188
162 188 186
137 139 188
131 189 187
162 187 189
131 132 189
137 188 190
162 190 188
135 137 190
132 191 189
162 189 191
132 133 191
135 190 192
162 192 190
133 135 192
162 191 192
133 192 191
16384
0 1056
32768
UFO_cockpit_0
